<?xml version="1.0" encoding="utf-8"?>
<!-- Generator: Adobe Illustrator 16.0.0, SVG Export Plug-In . SVG Version: 6.00 Build 0)  -->
<!DOCTYPE svg PUBLIC "-//W3C//DTD SVG 1.1//EN" "http://www.w3.org/Graphics/SVG/1.1/DTD/svg11.dtd">
<svg version="1.1" id="Layer_1" xmlns="http://www.w3.org/2000/svg" xmlns:xlink="http://www.w3.org/1999/xlink" x="0px" y="0px"
	 width="289.498px" height="61.492px" viewBox="0 0 289.498 61.492" enable-background="new 0 0 289.498 61.492"
	 xml:space="preserve">
<polygon fill="#845BA6" points="289.498,4.492 180.109,19.091 180.109,2.817 84.585,8.158 84.729,0 2.903,19.312 0,57.138 
	83.474,38.833 83.474,46.823 173.918,42.491 172.585,61.492 289.498,46.823 "/>
<path fill-rule="evenodd" clip-rule="evenodd" fill="#FFFFFF" d="M274.429,41.265c-0.242-0.711-0.404-1.145-0.375-3.5l0.055-4.544
	c0.031-2.686-0.869-3.56-2.939-3.292l-1.576,0.205l-0.184,11.771l-4.602,0.586l0.555-28.901l6.787-0.902
	c4.662-0.619,6.648,1.306,6.609,5.77l-0.02,2.273c-0.025,2.976-0.992,5.043-3.027,6.257c2.266,0.655,2.992,2.749,2.969,5.767
	l-0.039,4.463c-0.012,1.406,0.021,2.435,0.473,3.451L274.429,41.265z M269.796,17.123l-0.139,8.88l1.775-0.232
	c1.695-0.221,2.736-1.099,2.766-3.413l0.033-2.851c0.025-2.066-0.662-2.883-2.262-2.672L269.796,17.123z"/>
<path fill-rule="evenodd" clip-rule="evenodd" fill="#FFFFFF" d="M248.574,22.716c0.15-4.618,2.648-7.577,7.064-8.164
	c4.414-0.587,6.77,1.734,6.672,6.358l-0.324,15.024c-0.1,4.623-2.625,7.58-7.145,8.155c-4.52,0.576-6.904-1.749-6.754-6.367
	L248.574,22.716z M252.658,37.422c-0.061,2.062,0.834,2.729,2.295,2.542c1.459-0.187,2.396-1.089,2.449-3.152l0.391-15.597
	c0.053-2.062-0.83-2.727-2.268-2.538c-1.436,0.19-2.359,1.092-2.418,3.154L252.658,37.422z"/>
<path fill-rule="evenodd" clip-rule="evenodd" fill="#FFFFFF" d="M241.042,45.518c-0.223-0.709-0.371-1.142-0.283-3.49l0.174-4.533
	c0.102-2.678-0.773-3.549-2.846-3.28l-1.574,0.204l-0.49,11.738l-4.602,0.587l1.305-28.82l6.789-0.902
	c4.662-0.619,6.59,1.299,6.436,5.751l-0.078,2.267c-0.102,2.967-1.119,5.028-3.18,6.24c2.242,0.652,2.912,2.74,2.809,5.749
	l-0.152,4.451c-0.049,1.402-0.043,2.428,0.381,3.44L241.042,45.518z M237.054,21.445l-0.369,8.855l1.775-0.232
	c1.695-0.221,2.756-1.096,2.844-3.404l0.109-2.843c0.078-2.06-0.586-2.875-2.186-2.664L237.054,21.445z"/>
<path fill-rule="evenodd" clip-rule="evenodd" fill="#FFFFFF" d="M224.226,47.661c-0.215-0.709-0.359-1.141-0.238-3.485l0.232-4.527
	c0.137-2.673-0.725-3.543-2.797-3.275l-1.576,0.204L219.205,48.3l-4.602,0.586l1.682-28.779l6.789-0.902
	c4.662-0.618,6.562,1.297,6.35,5.742l-0.107,2.265c-0.141,2.963-1.184,5.021-3.256,6.232c2.229,0.651,2.871,2.735,2.727,5.74
	l-0.211,4.445c-0.066,1.399-0.074,2.424,0.336,3.435L224.226,47.661z M220.558,23.623l-0.484,8.843l1.777-0.232
	c1.693-0.221,2.764-1.096,2.883-3.4l0.145-2.838c0.105-2.058-0.545-2.87-2.145-2.659L220.558,23.623z"/>
<polygon fill-rule="evenodd" clip-rule="evenodd" fill="#FFFFFF" points="204.923,33.626 211.158,32.812 210.902,36.922 
	204.648,37.733 204.083,46.154 212.007,45.138 211.757,49.25 199.207,50.848 201.236,22.106 213.505,20.476 213.255,24.587 
	205.458,25.616 "/>
<polygon fill-rule="evenodd" clip-rule="evenodd" fill="#FFFFFF" points="185.369,24.213 199.273,22.366 198.976,26.472 
	194.257,27.095 192.388,51.716 187.787,52.302 189.746,27.69 185.027,28.314 "/>
<path fill-rule="evenodd" clip-rule="evenodd" fill="#FFFFFF" d="M171.039,26.102l-0.002,3.402
	c-0.002,4.099-2.367,6.563-6.926,6.797c-4.559,0.234-6.922-1.984-6.918-6.078l0.008-13.306c0.002-4.095,2.367-6.56,6.926-6.804
	c4.561-0.244,6.924,1.971,6.92,6.071l-0.002,2.489l-4.389,0.231v-2.744c0.002-1.83-0.926-2.475-2.404-2.396
	c-1.477,0.078-2.406,0.822-2.406,2.65l-0.01,13.823c-0.002,1.828,0.926,2.438,2.404,2.362c1.477-0.077,2.406-0.784,2.408-2.612
	l0.002-3.658L171.039,26.102z"/>
<polygon fill-rule="evenodd" clip-rule="evenodd" fill="#FFFFFF" points="149.562,11.185 154.207,10.937 154.191,36.519 
	149.55,36.758 "/>
<polygon fill-rule="evenodd" clip-rule="evenodd" fill="#FFFFFF" points="135.67,18.97 135.662,37.472 131.484,37.686 
	131.494,12.15 137.32,11.839 142.083,26.881 142.09,11.584 146.227,11.363 146.215,36.929 141.444,37.175 "/>
<polygon fill-rule="evenodd" clip-rule="evenodd" fill="#FFFFFF" points="123.515,12.577 128.158,12.329 128.149,37.858 
	123.506,38.097 "/>
<polygon fill-rule="evenodd" clip-rule="evenodd" fill="#FFFFFF" points="109.203,13.341 113.846,13.093 113.841,34.95 
	121.481,34.555 121.48,38.201 109.197,38.833 "/>
<path fill-rule="evenodd" clip-rule="evenodd" fill="#FFFFFF" d="M106.371,29.476l0,3.385c-0.001,4.078-2.365,6.53-6.922,6.764
	c-4.56,0.234-6.923-1.973-6.923-6.045l0.001-13.238c0-4.074,2.365-6.527,6.925-6.771c4.559-0.244,6.922,1.959,6.922,6.037l0,2.476
	l-4.39,0.231v-2.729c0-1.82-0.928-2.462-2.406-2.383c-1.478,0.079-2.406,0.818-2.406,2.638l-0.002,13.752
	c0,1.818,0.928,2.426,2.405,2.35s2.406-0.78,2.407-2.6l0-3.639L106.371,29.476z"/>
<path fill-rule="evenodd" clip-rule="evenodd" fill="#FFFFFF" d="M76.604,15.343l-0.025,3.414c-0.031,4.201-2.407,7.015-7.211,8.086
	l-2.271,0.505l-0.155,9.833l-4.847,1.054l0.527-26.126l6.972-1.618C74.326,9.394,76.634,11.142,76.604,15.343z M67.294,14.75
	l-0.141,8.861l2.264-0.51c1.525-0.343,2.358-1.128,2.379-3l0.046-3.932c0.021-1.873-0.791-2.283-2.303-1.935L67.294,14.75z"/>
<path fill-rule="evenodd" clip-rule="evenodd" fill="#FFFFFF" d="M44.96,22.385c0.151-4.154,2.775-7.117,7.423-8.196
	c4.647-1.079,7.131,0.717,7.035,4.893l-0.312,13.57c-0.096,4.176-2.75,7.126-7.511,8.161c-4.76,1.034-7.275-0.775-7.125-4.928
	L44.96,22.385z M49.282,35.081c-0.06,1.857,0.885,2.352,2.423,2.015c1.538-0.338,2.523-1.257,2.574-3.117l0.385-14.069
	c0.05-1.86-0.879-2.35-2.391-2.001c-1.512,0.348-2.484,1.272-2.543,3.13L49.282,35.081z"/>
<polygon fill-rule="evenodd" clip-rule="evenodd" fill="#FFFFFF" points="28.875,19.939 43.507,16.544 43.368,20.25 38.402,21.392 
	37.459,43.591 32.61,44.645 33.65,22.484 28.684,23.625 "/>
<path fill-rule="evenodd" clip-rule="evenodd" fill="#FFFFFF" d="M20.541,21.583c4.604-1.068,6.846,0.739,6.628,4.867l-0.043,0.811
	l-4.505,1.027l0.061-1.067c0.105-1.839-0.718-2.34-2.229-1.992c-1.511,0.348-2.418,1.245-2.531,3.081
	c-0.326,5.288,8.971,4.175,8.582,11.544c-0.218,4.128-2.811,7.022-7.571,8.057c-4.76,1.034-7.074-0.776-6.801-4.882l0.104-1.577
	l4.551-1.009l-0.113,1.836c-0.114,1.835,0.812,2.284,2.349,1.948c1.538-0.338,2.542-1.212,2.647-3.051
	c0.304-5.298-9.009-4.189-8.524-11.521C13.415,25.547,15.937,22.652,20.541,21.583"/>
</svg>
