<?xml version="1.0" encoding="utf-8"?>
<!-- Generator: Adobe Illustrator 19.1.0, SVG Export Plug-In . SVG Version: 6.00 Build 0)  -->
<svg version="1.1" id="uv_logo" xmlns="http://www.w3.org/2000/svg" xmlns:xlink="http://www.w3.org/1999/xlink" x="0px" y="0px"
	 viewBox="0 0 69.7 33.9" style="enable-background:new 0 0 69.7 33.9;" xml:space="preserve">
<style type="text/css">
	.st0{fill:#ffffff;}
</style>
<g>
	<path class="st0" d="M35.7,4.4l-3.4,3.3c-0.9,0.9-1.4,2.1-1.4,3.3c0,1.3,0.5,2.4,1.4,3.3c0.9,0.9,2.1,1.4,3.4,1.4
		c1.3,0,2.5-0.5,3.3-1.4c0.9-0.9,1.4-2.1,1.4-3.3c0-1.3-0.5-2.4-1.4-3.3L35.7,4.4z M25.6,1.1v15.2c0,1.3,0.5,2.5,1.4,3.3
		c0.9,0.9,2.1,1.4,3.4,1.4H41c1.3,0,2.5-0.5,3.4-1.4c0.9-0.9,1.4-2.1,1.4-3.3V1.1H41c-1.2,0-2.5,0.5-3.4,1.4l-1.2,1.1l3.4,3.3
		c1.1,1.1,1.7,2.6,1.7,4.1c0,3.2-2.6,5.8-5.9,5.8c-3.2,0-5.9-2.6-5.9-5.8c0-1.5,0.6-3,1.7-4.1l3.3-3.3l-1.2-1.1
		c-0.9-0.9-2.1-1.4-3.4-1.4H25.6z M41,22H30.4c-3.2,0-5.9-2.6-5.9-5.8V0.6c0-0.1,0.1-0.2,0.1-0.3l0-0.1l0.1-0.1c0,0,0,0,0,0
		C24.8,0,24.9,0,25.1,0h5.3c1.6,0,3,0.6,4.2,1.7l1.1,1.1l1.2-1.1C37.9,0.6,39.5,0,41,0h5.3c0.1,0,0.2,0.1,0.3,0.1l0.1,0.1l0,0.1
		c0.1,0.1,0.1,0.2,0.1,0.3v15.7C46.9,19.4,44.2,22,41,22"/>
	<path class="st0" d="M5,32.4c0,0.5,0.1,0.8,0.8,0.8v0.4c-0.4,0-1.2,0.1-1.7,0.3H3.9V33c-0.6,0.6-1.1,0.8-1.7,0.8
		c-0.9,0-1.4-0.6-1.4-1.6v-1.9c0-0.5-0.2-0.8-0.7-0.8v-0.4c0.9,0,1.4-0.1,1.6-0.1h0.3v3.1c0,0.8,0.4,1.1,0.9,1.1
		c0.4,0,0.8-0.2,1.1-0.6v-2.2c0-0.5-0.2-0.9-0.8-0.9v-0.4c0.8,0,1.2,0,1.6-0.1H5V32.4z"/>
	<path class="st0" d="M10.4,32.5c0,0.6,0.2,0.9,0.8,0.9v0.4H8.4v-0.4c0.7,0,0.8-0.3,0.8-0.9v-4.6l-0.8-0.4v-0.2l1.6-0.6h0.3V32.5z"
		/>
	<path class="st0" d="M15.3,32.2c0,0.5,0.1,0.9,0.7,0.9c0.3,0,0.5-0.1,0.9-0.2v0.4c-0.7,0.4-1.2,0.5-1.6,0.5c-0.7,0-1.1-0.4-1.1-1.3
		v-2.8h-0.8v-0.5c0.8-0.1,1.2-0.6,1.5-1.1h0.4v1.1h1.5v0.5h-1.5V32.2z"/>
	<path class="st0" d="M21.4,30.4L21.4,30.4c0.4-0.7,1-1.3,1.5-1.3c0.4,0,1,0.4,1,0.7c0,0.1-0.2,0.9-0.6,0.9c-0.4,0-0.7-0.6-1.1-0.6
		c-0.3,0-0.8,0.5-0.8,1.1v1.2c0,0.8,0.2,1,1.1,0.9v0.4h-3.1v-0.4c0.7,0,0.9-0.2,0.9-0.9v-2.3l-0.9-0.4v-0.2l1.7-0.6h0.3V30.4z"/>
	<path class="st0" d="M29.5,31.3c-1.1,0.4-1.8,0.6-1.8,1.3c0,0.4,0.3,0.7,0.7,0.7c0.3,0,0.7-0.1,1.1-0.4V31.3z M31.6,33.2
		c-0.4,0.4-0.8,0.7-1.3,0.7c-0.4,0-0.6-0.2-0.8-0.6c-0.7,0.4-1.3,0.6-1.8,0.6c-0.8,0-1.3-0.4-1.3-1.1c0-0.8,0.8-1.2,2.1-1.5l0.9-0.2
		v-0.8c0-0.5-0.3-0.8-0.9-0.8c-0.5,0-0.9,0.3-0.9,0.6c0,0.1,0,0.2,0.1,0.4l-1.1,0.4c-0.1-0.3-0.2-0.4-0.2-0.6c0-0.6,0.7-1.2,2.2-1.2
		c1.1,0,1.8,0.3,1.8,1.2v2.2c0,0.4,0.1,0.5,0.3,0.5c0.1,0,0.3-0.1,0.5-0.2L31.6,33.2z"/>
	<path class="st0" d="M36.1,29.1v0.4c-0.4,0-0.7,0.1-0.7,0.3c0,0.1,0,0.2,0.1,0.4l1.1,2.3l0.9-2.1c0.1-0.2,0.1-0.3,0.1-0.4
		c0-0.3-0.2-0.5-0.7-0.5v-0.4h1.9v0.4c-0.5,0-0.5,0.1-0.9,1l-1.6,3.4h-0.3l-1.9-3.8c-0.2-0.5-0.3-0.5-0.7-0.5v-0.4H36.1z"/>
	<path class="st0" d="M43.6,27.3c0,0.4-0.3,0.7-0.7,0.7c-0.4,0-0.7-0.3-0.7-0.7s0.3-0.7,0.7-0.7C43.3,26.7,43.6,27,43.6,27.3
		 M43.5,32.4c0,0.6,0.1,0.9,0.8,0.9v0.4h-2.7v-0.4c0.5,0,0.8-0.2,0.8-0.9v-2.3l-0.8-0.4v-0.2l1.7-0.6h0.3V32.4z"/>
	<path class="st0" d="M49.2,33.5c0.7,0,1.1-0.6,1.1-1.9c0-1.4-0.5-2.1-1.2-2.1c-0.7,0-1.1,0.6-1.1,1.9C48,32.6,48.5,33.5,49.2,33.5
		 M49.2,29c1.4,0,2.4,1,2.4,2.3c0,1.2-0.8,2.5-2.4,2.5c-1.5,0-2.4-1-2.4-2.4C46.7,30,47.8,29,49.2,29"/>
	<path class="st0" d="M56,32.5c0,0.6,0.2,0.9,0.8,0.9v0.4H54v-0.4c0.7,0,0.8-0.3,0.8-0.9v-4.6L54,27.5v-0.2l1.6-0.6H56V32.5z"/>
	<path class="st0" d="M62.4,30.6c0-0.7-0.4-1.2-1-1.2c-0.6,0-1,0.5-1.1,1.2H62.4z M60.3,31c0,1,0.8,1.9,1.8,1.9
		c0.5,0,0.9-0.2,1.3-0.5l0.3,0.2c-0.5,0.8-1.3,1.2-2.1,1.2c-1.3,0-2.2-0.9-2.2-2.3c0-1.5,0.9-2.5,2.3-2.5c1.1,0,2.2,0.7,2.2,2H60.3z
		"/>
	<path class="st0" d="M68.1,32.2c0,0.5,0.1,0.9,0.7,0.9c0.3,0,0.5-0.1,0.9-0.2v0.4c-0.7,0.4-1.2,0.5-1.6,0.5c-0.7,0-1.1-0.4-1.1-1.3
		v-2.8h-0.8v-0.5c0.7-0.1,1.2-0.6,1.5-1.1h0.4v1.1h1.5v0.5h-1.5V32.2z"/>
</g>
</svg>
